<?xml version="1.0" standalone="no"?>
<!DOCTYPE svg PUBLIC "-//W3C//DTD SVG 20010904//EN"
  "http://www.w3.org/TR/2001/REC-SVG-20010904/DTD/svg10.dtd">
<svg version="1.0" xmlns="http://www.w3.org/2000/svg"
  width="976.000000pt" height="976.000000pt" viewBox="0 0 976.000000 976.000000"
  preserveAspectRatio="xMidYMid meet">
<metadata>
Created by potrace 1.11, written by Peter Selinger 2001-2013
</metadata>
<g transform="translate(0.000000,976.000000) scale(0.100000,-0.100000)"
fill="#000000" stroke="none">
<path d="M1970 8094 c-126 -19 -162 -27 -250 -54 -72 -23 -172 -62 -180 -70
-3 -3 -27 -16 -55 -30 -132 -65 -279 -187 -385 -318 -19 -24 -41 -50 -48 -57
-6 -8 -12 -16 -12 -20 0 -4 -14 -27 -31 -51 -61 -89 -150 -307 -165 -404 -3
-19 -17 -80 -30 -135 -14 -55 -27 -109 -29 -120 -8 -34 -13 -56 -45 -190 -18
-71 -33 -134 -34 -140 -1 -5 -5 -19 -9 -30 -3 -11 -8 -31 -11 -45 -2 -14 -28
-119 -56 -235 -51 -208 -127 -521 -135 -560 -3 -11 -14 -58 -26 -105 -11 -47
-22 -92 -24 -100 -2 -8 -12 -51 -24 -95 -11 -44 -22 -91 -25 -105 -10 -50 -15
-72 -22 -93 -4 -12 -8 -29 -10 -37 -1 -8 -7 -35 -13 -60 -6 -25 -14 -56 -17
-70 -2 -14 -9 -38 -14 -55 -5 -16 -11 -41 -14 -55 -2 -14 -9 -45 -16 -70 -7
-25 -13 -49 -14 -55 -7 -34 -91 -380 -103 -425 -9 -30 -17 -64 -19 -75 -1 -11
-19 -85 -39 -165 -20 -80 -38 -156 -41 -170 -7 -32 -53 -219 -61 -245 -3 -11
-7 -47 -8 -79 -6 -110 47 -189 146 -223 49 -16 90 -18 392 -18 221 0 337 -3
338 -10 2 -26 10 -74 20 -116 6 -26 12 -55 14 -65 2 -11 4 -19 5 -19 1 0 4
-13 6 -30 11 -69 27 -48 38 50 6 49 18 85 28 85 5 0 7 4 4 8 -8 14 50 86 92
116 63 43 129 64 199 61 l62 -2 -2 126 c-2 142 6 236 28 331 9 36 18 76 21 89
17 81 135 350 168 383 6 7 23 31 36 52 49 80 164 206 265 291 33 28 63 55 67
60 5 7 8 7 8 0 0 -7 3 -7 8 0 9 13 61 49 104 73 100 56 124 69 130 71 4 1 28
10 52 21 83 35 218 75 291 85 11 2 34 6 50 10 17 3 95 8 175 10 196 4 324 -13
485 -67 265 -88 494 -245 662 -453 35 -44 71 -88 79 -98 8 -9 14 -19 14 -21 0
-2 18 -33 39 -69 77 -126 141 -290 168 -427 3 -14 6 -29 7 -35 4 -13 16 -91
21 -135 5 -40 6 -220 1 -265 -10 -94 -23 -158 -51 -265 -25 -97 -147 -370
-165 -370 -4 0 -13 -14 -20 -30 -7 -17 -16 -30 -21 -30 -5 0 -9 -5 -9 -10 0
-24 -163 -202 -261 -284 -58 -49 -208 -145 -285 -181 -88 -42 -204 -86 -204
-78 0 3 -6 1 -13 -5 -7 -6 -28 -12 -45 -14 -18 -1 -32 -5 -32 -8 0 -3 -10 -7
-22 -8 -13 -1 -61 -9 -108 -16 -79 -13 -344 -14 -410 -2 -14 2 -43 7 -64 11
-75 13 -237 65 -324 106 -103 47 -222 117 -222 131 0 5 -4 6 -10 3 -5 -3 -10
-1 -10 4 0 19 -34 12 -72 -14 -20 -14 -44 -25 -52 -25 -8 0 -17 -4 -20 -8 -3
-5 -29 -9 -58 -11 -99 -4 -144 -45 -153 -138 -2 -26 -8 -64 -13 -83 -8 -33 -6
-37 38 -69 25 -19 47 -38 50 -41 27 -32 323 -193 410 -223 25 -8 56 -20 70
-25 23 -9 43 -16 62 -21 4 -1 22 -7 40 -12 47 -15 99 -29 128 -34 14 -3 36 -8
48 -11 13 -2 43 -7 65 -10 23 -3 53 -8 67 -11 43 -10 372 -12 430 -3 30 5 73
11 95 14 48 7 89 14 130 23 17 4 32 7 35 8 3 1 32 9 65 20 33 10 67 20 75 21
50 10 261 106 375 172 80 46 186 121 269 192 66 56 246 242 246 255 0 2 10 15
22 29 25 27 29 31 76 98 17 25 32 49 32 53 0 3 11 21 25 39 14 18 25 36 25 39
0 3 14 29 30 57 17 28 30 57 30 65 0 8 5 15 10 15 6 0 10 6 10 13 0 7 9 31 19
53 46 96 114 333 127 447 4 29 8 54 10 56 9 10 286 7 290 -4 1 -5 6 -28 10
-50 11 -70 21 -120 24 -120 1 0 3 -13 5 -29 5 -39 65 -228 78 -243 5 -7 7 -13
3 -13 -4 0 0 -13 9 -30 8 -16 16 -32 16 -35 1 -31 189 -346 246 -412 10 -11
32 -38 50 -60 57 -69 255 -263 269 -263 2 0 32 -22 67 -48 127 -98 314 -198
487 -260 88 -32 215 -66 300 -81 124 -22 153 -24 330 -25 164 -1 228 3 320 19
14 2 39 7 55 9 42 7 63 12 115 26 25 7 52 14 60 15 24 6 158 53 204 72 61 26
239 119 283 148 21 14 46 31 57 38 201 133 412 350 543 562 50 80 132 228 133
240 0 3 10 26 21 52 19 45 67 180 75 213 2 8 8 35 15 60 22 89 23 95 33 169 3
25 9 47 12 50 3 3 154 6 337 7 183 0 348 4 367 8 99 20 172 114 172 221 0 16
-16 96 -36 177 -19 80 -38 157 -40 170 -3 12 -12 47 -20 76 -8 28 -12 52 -9
52 3 0 -1 7 -8 17 -8 9 -13 18 -11 20 6 6 -1 36 -109 483 -38 159 -49 203 -55
225 -12 47 -36 145 -40 165 -3 14 -7 30 -8 35 -2 6 -6 24 -10 40 -4 17 -11 46
-17 65 -7 28 -41 169 -66 275 -2 11 -5 25 -7 30 -2 6 -6 24 -10 40 -4 17 -11
46 -16 65 -5 19 -12 50 -15 69 -3 19 -10 42 -15 51 -5 10 -7 20 -3 23 3 4 0
13 -7 22 -7 8 -10 15 -7 15 3 0 1 17 -4 38 -6 20 -12 51 -15 67 -3 17 -10 38
-15 48 -5 9 -8 17 -5 17 3 0 0 15 -5 33 -6 17 -12 42 -15 54 -2 11 -31 133
-65 270 -71 288 -68 276 -74 306 -5 25 -42 175 -55 227 -5 19 -12 49 -16 65
-4 17 -8 32 -9 35 0 3 -5 23 -10 45 -4 22 -9 45 -11 50 -2 6 -5 20 -8 33 -3
13 -7 31 -10 40 -3 9 -7 28 -10 42 -2 14 -9 45 -16 70 -6 25 -13 54 -15 65 -6
36 -83 210 -120 274 -85 145 -203 278 -330 372 -44 33 -85 63 -91 68 -22 18
-174 91 -241 117 -73 27 -203 61 -268 70 -22 3 -47 8 -55 10 -8 3 -72 8 -142
11 -100 4 -136 2 -175 -11 -185 -61 -219 -309 -58 -422 44 -31 88 -42 205 -48
58 -3 119 -8 135 -11 303 -53 511 -202 634 -456 22 -47 41 -95 41 -106 0 -11
3 -23 7 -27 4 -3 8 -17 10 -29 2 -12 13 -60 24 -107 11 -47 22 -93 24 -103 2
-10 7 -27 10 -37 6 -17 8 -29 20 -82 3 -13 12 -52 21 -87 9 -36 18 -73 20 -84
2 -10 6 -28 10 -40 4 -12 8 -29 9 -37 1 -8 19 -82 39 -165 21 -82 49 -197 63
-255 32 -136 32 -137 37 -158 2 -9 27 -111 55 -226 28 -114 53 -218 55 -230 3
-11 10 -36 15 -55 6 -19 9 -37 6 -39 -2 -3 0 -12 5 -22 5 -9 11 -28 14 -41 2
-13 25 -108 50 -211 25 -103 48 -198 50 -210 3 -13 10 -43 17 -68 15 -62 15
-62 22 -90 10 -40 37 -153 42 -177 7 -33 9 -42 54 -222 23 -91 43 -174 46
-185 2 -12 14 -59 25 -106 11 -47 23 -99 26 -115 l6 -31 -161 1 c-88 0 -162 3
-165 5 -4 5 -6 17 -21 115 -23 144 -109 388 -189 535 -31 57 -121 205 -137
224 -5 6 -28 36 -51 66 -67 88 -194 218 -278 286 -19 16 -37 31 -40 34 -3 3
-21 17 -40 30 -19 13 -40 29 -47 35 -44 37 -41 36 -84 14 -116 -59 -195 -182
-206 -321 -5 -56 -3 -68 13 -81 150 -120 211 -179 300 -287 53 -66 164 -245
164 -265 0 -6 5 -16 12 -23 20 -20 92 -230 104 -307 1 -5 3 -12 4 -15 15 -38
28 -202 25 -320 -4 -152 -3 -144 -50 -357 -12 -54 -70 -196 -117 -284 -95
-183 -281 -397 -432 -498 -13 -9 -41 -28 -62 -42 -123 -82 -342 -173 -471
-195 -15 -3 -35 -7 -43 -9 -69 -19 -390 -27 -470 -12 -19 4 -46 10 -60 12 -14
3 -34 7 -45 9 -62 12 -189 52 -240 76 -11 5 -45 21 -75 34 -400 182 -715 596
-795 1046 -4 19 -9 46 -11 60 -3 14 -6 90 -8 170 -6 207 36 423 114 595 28 62
28 67 -5 72 -75 11 -154 64 -204 137 -33 48 -48 91 -56 166 -6 47 -27 93 -38
79 -19 -23 -147 -270 -147 -282 0 -2 -7 -21 -15 -41 -8 -20 -15 -38 -15 -41 0
-3 -7 -22 -16 -43 -8 -20 -17 -44 -19 -52 -2 -8 -13 -53 -25 -100 -29 -118
-30 -120 -36 -170 -3 -24 -9 -47 -15 -50 -7 -5 -257 -6 -280 -1 -4 0 -9 22
-12 49 -3 26 -8 61 -12 77 -21 98 -26 122 -34 145 -5 14 -15 45 -22 70 -7 25
-17 51 -22 58 -5 6 -7 12 -4 12 23 0 -186 407 -214 418 -5 2 -9 10 -9 17 0 7
-3 15 -7 17 -5 2 -19 19 -33 39 -115 166 -338 370 -544 498 -72 45 -282 149
-316 157 -3 0 -12 3 -20 7 -67 27 -269 79 -357 92 -23 3 -57 8 -75 11 -65 10
-345 12 -428 3 -299 -31 -598 -137 -855 -303 -127 -82 -331 -262 -407 -360
-13 -16 -33 -39 -45 -52 -13 -13 -23 -28 -23 -34 0 -5 -3 -10 -7 -10 -5 0 -21
-21 -38 -48 -16 -26 -32 -49 -35 -52 -12 -10 -80 -128 -80 -139 0 -6 -4 -11
-10 -11 -5 0 -10 -9 -10 -20 0 -11 -4 -20 -10 -20 -5 0 -10 -4 -10 -9 0 -5
-13 -38 -29 -73 -16 -35 -39 -92 -51 -128 -12 -36 -25 -72 -28 -80 -8 -22 -13
-43 -14 -57 -1 -7 -6 -13 -11 -13 -6 0 -8 -3 -5 -6 3 -3 -1 -33 -9 -67 -8 -34
-16 -73 -18 -87 -7 -54 -16 -95 -21 -100 -3 -3 -77 -5 -165 -5 l-158 0 4 25
c2 14 13 61 24 105 23 93 76 314 87 365 4 19 8 37 9 40 1 3 5 17 9 31 4 14 8
32 10 40 1 8 7 32 13 54 6 22 32 130 58 240 26 110 54 225 62 255 7 30 16 64
18 75 12 50 15 66 19 83 31 126 49 201 52 219 2 12 8 33 13 45 5 13 9 25 9 28
1 8 8 40 72 305 33 138 67 277 75 310 8 33 37 154 65 268 27 114 52 218 54
230 3 12 5 22 6 22 2 0 9 33 14 60 2 11 9 40 16 65 7 25 13 52 15 60 13 68 80
326 96 370 52 143 194 315 319 385 81 46 223 101 286 111 20 3 46 8 58 10 11
2 67 7 124 10 109 6 111 6 157 19 30 8 35 12 83 55 124 111 82 323 -77 392
-53 22 -190 23 -331 2z"/>
<path d="M7380 6152 c0 -15 -7 -55 -15 -87 -53 -210 -226 -402 -438 -486 -29
-12 -61 -23 -72 -25 -45 -10 -91 -17 -107 -18 -9 0 -15 -4 -12 -8 2 -3 12 -6
22 -6 21 1 76 -9 122 -23 49 -14 200 -90 200 -100 0 -5 6 -9 13 -9 7 0 23 -10
34 -22 11 -13 29 -30 40 -38 35 -28 100 -115 136 -180 37 -68 77 -185 77 -226
0 -48 17 -23 29 43 13 70 84 229 123 274 82 94 165 169 187 169 6 0 11 4 11 9
0 9 114 63 170 80 30 9 53 14 117 25 24 4 22 12 -3 14 -53 4 -151 35 -222 68
-70 34 -184 120 -227 173 -90 108 -163 275 -168 384 -2 29 -17 19 -17 -11z"/>
<path d="M6260 5391 c-111 -40 -225 -89 -219 -95 2 -2 27 -6 55 -9 164 -15
302 -174 286 -329 -2 -16 -1 -28 1 -28 3 0 33 9 68 20 70 21 137 38 184 46 17
3 41 8 55 10 14 3 90 7 169 9 79 2 146 6 148 9 11 10 -106 115 -156 141 -65
32 -72 34 -184 46 -56 5 -105 17 -133 30 -57 29 -118 89 -146 143 l-23 44
-105 -37z"/>
<path d="M5620 5360 c-13 -126 -81 -237 -189 -312 -45 -32 -133 -68 -163 -68
-10 0 -18 -4 -18 -10 0 -6 3 -9 8 -8 15 3 99 -25 142 -49 39 -22 123 -99 155
-144 19 -26 46 -95 60 -150 8 -35 13 -45 15 -29 3 47 9 64 44 136 58 116 170
205 294 232 23 6 44 7 48 3 4 -3 4 0 0 7 -4 7 -13 12 -19 10 -51 -9 -169 52
-242 125 -66 67 -102 131 -121 217 -7 30 -13 48 -14 40z"/>
<path d="M7391 4874 c0 -11 3 -14 6 -6 3 7 2 16 -1 19 -3 4 -6 -2 -5 -13z"/>
<path d="M1269 3028 c-4 -70 -56 -173 -120 -237 -51 -51 -169 -118 -221 -124
-46 -5 -40 -13 20 -25 115 -25 237 -124 284 -232 32 -73 38 -92 38 -110 0 -11
5 -20 12 -20 6 0 9 3 5 6 -9 9 22 104 50 151 58 100 169 183 277 208 l51 12
-45 12 c-134 37 -248 130 -300 246 -16 37 -31 80 -32 96 -2 28 -17 42 -19 17z"/>
</g>
</svg>
